<svg width="185" height="58" viewBox="0 0 185 58" fill="none" xmlns="http://www.w3.org/2000/svg">
<rect y="9.98303" width="34" height="8.0678" rx="4.0339" fill="#C5FFD6"/>
<rect x="13.2543" y="20.9321" width="8.0678" height="27.0847" rx="4.0339" fill="#31E264"/>
<path d="M39.808 23.848V36.856C39.808 38.456 40.256 39.592 41.152 40.264C42.08 40.904 43.488 41.224 45.376 41.224C47.392 41.224 48.832 40.888 49.696 40.216C50.592 39.512 51.04 38.392 51.04 36.856V23.848C51.072 23.848 51.168 23.848 51.328 23.848C51.52 23.848 51.712 23.848 51.904 23.848C52.128 23.848 52.336 23.848 52.528 23.848C52.72 23.848 52.848 23.848 52.912 23.848C53.296 23.848 53.6 23.88 53.824 23.944C54.048 23.976 54.192 24.088 54.256 24.28C54.352 24.472 54.4 24.792 54.4 25.24V36.232C54.4 37.832 54.16 39.16 53.68 40.216C53.2 41.24 52.304 42.008 50.992 42.52C49.68 43 47.792 43.24 45.328 43.24C43.088 43.24 41.312 43.032 40 42.616C38.72 42.2 37.808 41.496 37.264 40.504C36.72 39.512 36.448 38.168 36.448 36.472V25.24C36.448 24.696 36.528 24.328 36.688 24.136C36.88 23.944 37.232 23.848 37.744 23.848C38.096 23.848 38.432 23.848 38.752 23.848C39.104 23.848 39.456 23.848 39.808 23.848ZM60.8121 43C60.0761 43 59.7081 42.616 59.7081 41.848V25.24C60.6361 24.824 61.8521 24.456 63.3561 24.136C64.8921 23.816 66.6521 23.656 68.6361 23.656C70.4921 23.656 71.9961 23.784 73.1481 24.04C74.3001 24.296 75.1801 24.68 75.7881 25.192C76.3961 25.704 76.7961 26.376 76.9881 27.208C77.2121 28.008 77.3241 28.984 77.3241 30.136V41.56C77.3241 41.912 77.2761 42.2 77.1801 42.424C77.1161 42.648 76.9721 42.808 76.7481 42.904C76.5561 42.968 76.2521 43 75.8361 43H73.9641V29.464C73.9641 28.184 73.5481 27.24 72.7161 26.632C71.8841 26.024 70.5241 25.72 68.6361 25.72C68.0281 25.72 67.3561 25.768 66.6201 25.864C65.9161 25.96 65.2441 26.104 64.6041 26.296C63.9641 26.456 63.4361 26.68 63.0201 26.968V43H60.8121ZM91.8895 43.288C90.0335 43.288 88.4655 43.16 87.1855 42.904C85.9375 42.648 84.9295 42.168 84.1615 41.464C83.4255 40.76 82.8815 39.784 82.5295 38.536C82.2095 37.256 82.0495 35.608 82.0495 33.592C82.0495 31.288 82.3375 29.4 82.9135 27.928C83.4895 26.456 84.5135 25.368 85.9855 24.664C87.4575 23.96 89.5215 23.608 92.1775 23.608C94.2255 23.608 95.8575 23.88 97.0735 24.424C98.3215 24.968 99.2175 25.8 99.7615 26.92C100.338 28.04 100.626 29.496 100.626 31.288V34.024H87.0895C87.0895 33.64 87.1855 33.32 87.3775 33.064C87.5695 32.776 87.9215 32.632 88.4335 32.632H97.6015L97.5535 31.24C97.5215 29.256 97.0895 27.816 96.2575 26.92C95.4575 26.024 94.0495 25.576 92.0335 25.576C90.3375 25.576 89.0095 25.832 88.0495 26.344C87.0895 26.856 86.4175 27.688 86.0335 28.84C85.6495 29.992 85.4575 31.56 85.4575 33.544C85.4575 35.656 85.6655 37.272 86.0815 38.392C86.5295 39.48 87.2655 40.232 88.2895 40.648C89.3135 41.032 90.7055 41.224 92.4655 41.224C93.0735 41.224 93.7615 41.208 94.5295 41.176C95.3295 41.112 96.1295 41.048 96.9295 40.984C97.7295 40.92 98.4335 40.84 99.0415 40.744C99.6815 40.616 100.13 40.488 100.386 40.36V40.936C100.386 41.256 100.29 41.56 100.098 41.848C99.9375 42.136 99.5855 42.376 99.0415 42.568C98.3375 42.856 97.3775 43.048 96.1615 43.144C94.9775 43.24 93.5535 43.288 91.8895 43.288ZM104.074 26.104H105.658V23.272C105.658 21.768 105.946 20.632 106.522 19.864C107.098 19.096 108.218 18.712 109.882 18.712C110.65 18.712 111.37 18.744 112.042 18.808C112.746 18.84 113.37 18.888 113.914 18.952C114.49 19.016 114.986 19.064 115.402 19.096V21.064C115.178 20.968 114.858 20.904 114.442 20.872C114.026 20.808 113.562 20.76 113.05 20.728C112.57 20.696 112.074 20.68 111.562 20.68C110.506 20.68 109.802 20.904 109.45 21.352C109.13 21.768 108.97 22.52 108.97 23.608V26.104H114.442V27.976H108.97V43H106.858C106.378 43 106.058 42.904 105.898 42.712C105.738 42.52 105.658 42.184 105.658 41.704V27.976H104.074V26.104ZM121.839 23.848V36.856C121.839 38.456 122.287 39.592 123.183 40.264C124.111 40.904 125.519 41.224 127.407 41.224C129.423 41.224 130.863 40.888 131.727 40.216C132.623 39.512 133.071 38.392 133.071 36.856V23.848C133.103 23.848 133.199 23.848 133.359 23.848C133.551 23.848 133.743 23.848 133.935 23.848C134.159 23.848 134.367 23.848 134.559 23.848C134.751 23.848 134.879 23.848 134.943 23.848C135.327 23.848 135.631 23.88 135.855 23.944C136.079 23.976 136.223 24.088 136.287 24.28C136.383 24.472 136.431 24.792 136.431 25.24V36.232C136.431 37.832 136.191 39.16 135.711 40.216C135.231 41.24 134.335 42.008 133.023 42.52C131.711 43 129.823 43.24 127.359 43.24C125.119 43.24 123.343 43.032 122.031 42.616C120.751 42.2 119.839 41.496 119.295 40.504C118.751 39.512 118.479 38.168 118.479 36.472V25.24C118.479 24.696 118.559 24.328 118.719 24.136C118.911 23.944 119.263 23.848 119.775 23.848C120.127 23.848 120.463 23.848 120.783 23.848C121.135 23.848 121.487 23.848 121.839 23.848ZM145.771 43.192C144.299 43.192 143.243 42.872 142.603 42.232C141.963 41.56 141.643 40.376 141.643 38.68V20.344C141.643 19.96 141.675 19.656 141.739 19.432C141.803 19.176 141.931 19 142.123 18.904C142.347 18.808 142.651 18.76 143.035 18.76H145.051C145.051 18.792 145.035 19 145.003 19.384C144.971 19.768 144.955 20.248 144.955 20.824V38.152C144.955 39.368 145.083 40.248 145.339 40.792C145.627 41.336 146.171 41.608 146.971 41.608C147.195 41.608 147.499 41.576 147.883 41.512C148.267 41.448 148.523 41.4 148.651 41.368V42.856C148.459 42.888 148.139 42.952 147.691 43.048C147.275 43.144 146.635 43.192 145.771 43.192ZM149.894 43L156.278 24.136C156.662 23.048 157.19 22.216 157.862 21.64C158.534 21.032 159.686 20.728 161.318 20.728C162.79 20.728 163.878 21 164.582 21.544C165.286 22.088 165.846 22.952 166.262 24.136L172.79 43H168.806L166.742 36.904H154.742L152.774 43H149.894ZM155.366 35.224H166.07L162.902 25.576C162.742 25.096 162.534 24.68 162.278 24.328C162.022 23.944 161.51 23.752 160.742 23.752C159.878 23.752 159.302 23.944 159.014 24.328C158.758 24.712 158.566 25.128 158.438 25.576L155.366 35.224ZM180.454 43.192C178.95 43.192 177.942 42.792 177.43 41.992C176.918 41.192 176.662 40.024 176.662 38.488V23.848H180.022V38.296C180.022 39.608 180.166 40.488 180.454 40.936C180.742 41.384 181.254 41.608 181.99 41.608C182.246 41.608 182.566 41.576 182.95 41.512C183.334 41.448 183.574 41.4 183.67 41.368V42.856C183.574 42.888 183.382 42.936 183.094 43C182.838 43.032 182.486 43.064 182.038 43.096C181.622 43.16 181.094 43.192 180.454 43.192ZM178.39 21.064C177.846 21.064 177.414 20.984 177.094 20.824C176.774 20.664 176.614 20.328 176.614 19.816C176.614 19.304 176.758 18.968 177.046 18.808C177.366 18.648 177.798 18.568 178.342 18.568C178.95 18.568 179.398 18.648 179.686 18.808C179.974 18.968 180.102 19.304 180.07 19.816C180.07 20.328 179.926 20.664 179.638 20.824C179.35 20.984 178.934 21.064 178.39 21.064Z" fill="currentColor"/>
</svg>
