<svg width="283" height="86" viewBox="0 0 283 86" fill="none" xmlns="http://www.w3.org/2000/svg">
<rect y="11.1187" width="57" height="13.5254" rx="6.76271" fill="#C5FFD6"/>
<rect x="22.2205" y="29.4745" width="13.5254" height="45.4068" rx="6.76271" fill="#31E264"/>
<path d="M65.712 36.272V55.784C65.712 58.184 66.384 59.888 67.728 60.896C69.12 61.856 71.232 62.336 74.064 62.336C77.088 62.336 79.248 61.832 80.544 60.824C81.888 59.768 82.56 58.088 82.56 55.784V36.272C82.608 36.272 82.752 36.272 82.992 36.272C83.28 36.272 83.568 36.272 83.856 36.272C84.192 36.272 84.504 36.272 84.792 36.272C85.08 36.272 85.272 36.272 85.368 36.272C85.944 36.272 86.4 36.32 86.736 36.416C87.072 36.464 87.288 36.632 87.384 36.92C87.528 37.208 87.6 37.688 87.6 38.36V54.848C87.6 57.248 87.24 59.24 86.52 60.824C85.8 62.36 84.456 63.512 82.488 64.28C80.52 65 77.688 65.36 73.992 65.36C70.632 65.36 67.968 65.048 66 64.424C64.08 63.8 62.712 62.744 61.896 61.256C61.08 59.768 60.672 57.752 60.672 55.208V38.36C60.672 37.544 60.792 36.992 61.032 36.704C61.32 36.416 61.848 36.272 62.616 36.272C63.144 36.272 63.648 36.272 64.128 36.272C64.656 36.272 65.184 36.272 65.712 36.272ZM97.2182 65C96.1142 65 95.5622 64.424 95.5622 63.272V38.36C96.9542 37.736 98.7782 37.184 101.034 36.704C103.338 36.224 105.978 35.984 108.954 35.984C111.738 35.984 113.994 36.176 115.722 36.56C117.45 36.944 118.77 37.52 119.682 38.288C120.594 39.056 121.194 40.064 121.482 41.312C121.818 42.512 121.986 43.976 121.986 45.704V62.84C121.986 63.368 121.914 63.8 121.77 64.136C121.674 64.472 121.458 64.712 121.122 64.856C120.834 64.952 120.378 65 119.754 65H116.946V44.696C116.946 42.776 116.322 41.36 115.074 40.448C113.826 39.536 111.786 39.08 108.954 39.08C108.042 39.08 107.034 39.152 105.93 39.296C104.874 39.44 103.866 39.656 102.906 39.944C101.946 40.184 101.154 40.52 100.53 40.952V65H97.2182ZM143.834 65.432C141.05 65.432 138.698 65.24 136.778 64.856C134.906 64.472 133.394 63.752 132.242 62.696C131.138 61.64 130.322 60.176 129.794 58.304C129.314 56.384 129.074 53.912 129.074 50.888C129.074 47.432 129.506 44.6 130.37 42.392C131.234 40.184 132.77 38.552 134.978 37.496C137.186 36.44 140.282 35.912 144.266 35.912C147.338 35.912 149.786 36.32 151.61 37.136C153.482 37.952 154.826 39.2 155.642 40.88C156.506 42.56 156.938 44.744 156.938 47.432V51.536H136.634C136.634 50.96 136.778 50.48 137.066 50.096C137.354 49.664 137.882 49.448 138.65 49.448H152.402L152.33 47.36C152.282 44.384 151.634 42.224 150.386 40.88C149.186 39.536 147.074 38.864 144.05 38.864C141.506 38.864 139.514 39.248 138.074 40.016C136.634 40.784 135.626 42.032 135.05 43.76C134.474 45.488 134.186 47.84 134.186 50.816C134.186 53.984 134.498 56.408 135.122 58.088C135.794 59.72 136.898 60.848 138.434 61.472C139.97 62.048 142.058 62.336 144.698 62.336C145.61 62.336 146.642 62.312 147.794 62.264C148.994 62.168 150.194 62.072 151.394 61.976C152.594 61.88 153.65 61.76 154.562 61.616C155.522 61.424 156.194 61.232 156.578 61.04V61.904C156.578 62.384 156.434 62.84 156.146 63.272C155.906 63.704 155.378 64.064 154.562 64.352C153.506 64.784 152.066 65.072 150.242 65.216C148.466 65.36 146.33 65.432 143.834 65.432ZM162.111 39.656H164.487V35.408C164.487 33.152 164.919 31.448 165.783 30.296C166.647 29.144 168.327 28.568 170.823 28.568C171.975 28.568 173.055 28.616 174.063 28.712C175.119 28.76 176.055 28.832 176.871 28.928C177.735 29.024 178.479 29.096 179.103 29.144V32.096C178.767 31.952 178.287 31.856 177.663 31.808C177.039 31.712 176.343 31.64 175.575 31.592C174.855 31.544 174.111 31.52 173.343 31.52C171.759 31.52 170.703 31.856 170.175 32.528C169.695 33.152 169.455 34.28 169.455 35.912V39.656H177.663V42.464H169.455V65H166.287C165.567 65 165.087 64.856 164.847 64.568C164.607 64.28 164.487 63.776 164.487 63.056V42.464H162.111V39.656ZM188.759 36.272V55.784C188.759 58.184 189.431 59.888 190.775 60.896C192.167 61.856 194.279 62.336 197.111 62.336C200.135 62.336 202.295 61.832 203.591 60.824C204.935 59.768 205.607 58.088 205.607 55.784V36.272C205.655 36.272 205.799 36.272 206.039 36.272C206.327 36.272 206.615 36.272 206.903 36.272C207.239 36.272 207.551 36.272 207.839 36.272C208.127 36.272 208.319 36.272 208.415 36.272C208.991 36.272 209.447 36.32 209.783 36.416C210.119 36.464 210.335 36.632 210.431 36.92C210.575 37.208 210.647 37.688 210.647 38.36V54.848C210.647 57.248 210.287 59.24 209.567 60.824C208.847 62.36 207.503 63.512 205.535 64.28C203.567 65 200.735 65.36 197.039 65.36C193.679 65.36 191.015 65.048 189.047 64.424C187.127 63.8 185.759 62.744 184.943 61.256C184.127 59.768 183.719 57.752 183.719 55.208V38.36C183.719 37.544 183.839 36.992 184.079 36.704C184.367 36.416 184.895 36.272 185.663 36.272C186.191 36.272 186.695 36.272 187.175 36.272C187.703 36.272 188.231 36.272 188.759 36.272ZM224.657 65.288C222.449 65.288 220.865 64.808 219.905 63.848C218.945 62.84 218.465 61.064 218.465 58.52V31.016C218.465 30.44 218.513 29.984 218.609 29.648C218.705 29.264 218.897 29 219.185 28.856C219.521 28.712 219.977 28.64 220.553 28.64H223.577C223.577 28.688 223.553 29 223.505 29.576C223.457 30.152 223.433 30.872 223.433 31.736V57.728C223.433 59.552 223.625 60.872 224.009 61.688C224.441 62.504 225.257 62.912 226.457 62.912C226.793 62.912 227.249 62.864 227.825 62.768C228.401 62.672 228.785 62.6 228.977 62.552V64.784C228.689 64.832 228.209 64.928 227.537 65.072C226.913 65.216 225.953 65.288 224.657 65.288ZM230.841 65L240.417 36.704C240.993 35.072 241.785 33.824 242.793 32.96C243.801 32.048 245.529 31.592 247.977 31.592C250.185 31.592 251.817 32 252.873 32.816C253.929 33.632 254.769 34.928 255.393 36.704L265.185 65H259.209L256.113 55.856H238.113L235.161 65H230.841ZM239.049 53.336H255.105L250.353 38.864C250.113 38.144 249.801 37.52 249.417 36.992C249.033 36.416 248.265 36.128 247.113 36.128C245.817 36.128 244.953 36.416 244.521 36.992C244.137 37.568 243.849 38.192 243.657 38.864L239.049 53.336ZM276.682 65.288C274.426 65.288 272.914 64.688 272.146 63.488C271.378 62.288 270.994 60.536 270.994 58.232V36.272H276.034V57.944C276.034 59.912 276.25 61.232 276.682 61.904C277.114 62.576 277.882 62.912 278.986 62.912C279.37 62.912 279.85 62.864 280.426 62.768C281.002 62.672 281.362 62.6 281.506 62.552V64.784C281.362 64.832 281.074 64.904 280.642 65C280.258 65.048 279.73 65.096 279.058 65.144C278.434 65.24 277.642 65.288 276.682 65.288ZM273.586 32.096C272.77 32.096 272.122 31.976 271.642 31.736C271.162 31.496 270.922 30.992 270.922 30.224C270.922 29.456 271.138 28.952 271.57 28.712C272.05 28.472 272.698 28.352 273.514 28.352C274.426 28.352 275.098 28.472 275.53 28.712C275.962 28.952 276.154 29.456 276.106 30.224C276.106 30.992 275.89 31.496 275.458 31.736C275.026 31.976 274.402 32.096 273.586 32.096Z" fill="currentColor"/>
</svg>
